<svg width="227" height="40" viewBox="0 0 227 40" fill="none" xmlns="http://www.w3.org/2000/svg">
<g clip-path="url(#clip0_9_225)">
<path d="M66.3726 10.489V15.9978H57.0093V39.6676H50.2394V23.3265C51.0693 22.0624 51.9155 20.7765 52.7563 19.4851C54.7927 16.3738 56.8292 13.2625 58.6418 10.489H66.3726Z" fill="#001C8E"/>
<path d="M40.4995 20.9563H46.8217C48.667 18.8421 50.7199 16.8969 52.9747 15.2241H40.4995V20.9563Z" fill="#FCB017"/>
<path d="M68.8731 39.684V18.6514H74.7094V24.5907L73.8905 22.8688C74.5129 21.3867 75.5229 20.2588 76.9042 19.4905C78.2909 18.7168 79.9725 18.3354 81.9543 18.3354V23.9695C81.6977 23.9368 81.463 23.9204 81.25 23.9041C81.0426 23.8932 80.8242 23.8878 80.5894 23.8878C78.9133 23.8878 77.5648 24.3673 76.5329 25.3154C75.501 26.2634 74.9879 27.751 74.9879 29.7562V39.684H68.8785H68.8731Z" fill="#001C8E"/>
<path d="M90.7279 40C89.0846 40 87.6705 39.7167 86.4967 39.1554C85.3229 38.5942 84.4221 37.8368 83.7942 36.8669C83.1718 35.9025 82.8552 34.8236 82.8552 33.6248C82.8552 32.4261 83.1664 31.2818 83.7724 30.3446C84.3893 29.4074 85.3611 28.6718 86.6878 28.1379C88.0254 27.6039 89.7561 27.3314 91.8963 27.3314H97.4979V30.8895H92.5624C91.1265 30.8895 90.1383 31.1238 89.6087 31.5924C89.0737 32.0665 88.8007 32.6495 88.8007 33.3524C88.8007 34.1316 89.1119 34.7528 89.7179 35.205C90.3348 35.6627 91.1756 35.8916 92.2457 35.8916C93.3158 35.8916 94.1784 35.6518 94.9864 35.1669C95.7999 34.6819 96.3841 33.9736 96.7499 33.0364L97.6944 35.8534C97.2467 37.2047 96.4387 38.2346 95.2649 38.9429C94.0856 39.6458 92.5733 40 90.7225 40H90.7279ZM97.1484 39.684V35.5755L96.7554 34.6765V27.326C96.7554 26.0237 96.3568 25.0048 95.5652 24.2746C94.7626 23.5445 93.5451 23.1794 91.8963 23.1794C90.7771 23.1794 89.6742 23.3538 88.5878 23.7079C87.5013 24.0621 86.5841 24.5362 85.8307 25.1355L83.6304 20.8745C84.7824 20.0681 86.1637 19.4415 87.7797 19.0001C89.4012 18.5533 91.0501 18.3354 92.7207 18.3354C95.931 18.3354 98.426 19.0873 100.2 20.6075C101.975 22.1169 102.865 24.4762 102.865 27.6802V39.684H97.143H97.1484Z" fill="#001C8E"/>
<path d="M113.713 39.684L104.863 18.6514H111.169L118.534 36.7525H115.405L123.043 18.6514H128.923L120.03 39.684H113.724H113.713Z" fill="#001C8E"/>
<path d="M141.295 40C138.887 40 136.785 39.526 134.967 38.5942C133.149 37.657 131.746 36.3765 130.752 34.7419C129.764 33.1127 129.267 31.26 129.267 29.1731C129.267 27.0862 129.759 25.1955 130.736 23.5663C131.719 21.9371 133.056 20.662 134.749 19.7357C136.452 18.8094 138.363 18.3463 140.509 18.3463C142.654 18.3463 144.434 18.7876 146.088 19.654C147.754 20.5258 149.064 21.7791 150.025 23.4083C150.997 25.0375 151.472 26.9881 151.472 29.2549C151.472 29.4892 151.461 29.7562 151.433 30.0559C151.406 30.3555 151.384 30.6389 151.357 30.9004H134.241V27.3423H148.147L145.799 28.3994C145.799 27.3042 145.581 26.3561 145.133 25.5442C144.691 24.7378 144.074 24.1057 143.293 23.6535C142.512 23.1958 141.59 22.9669 140.552 22.9669C139.515 22.9669 138.587 23.1958 137.784 23.6535C136.993 24.1057 136.365 24.7487 135.928 25.566C135.48 26.3888 135.262 27.3587 135.262 28.4811V29.4183C135.262 30.5626 135.519 31.5761 136.026 32.4479C136.534 33.3197 137.255 33.9845 138.183 34.4422C139.117 34.8944 140.203 35.1287 141.459 35.1287C142.578 35.1287 143.561 34.9598 144.412 34.622C145.264 34.2842 146.039 33.772 146.744 33.0963L149.992 36.6163C149.026 37.7115 147.814 38.5506 146.351 39.1391C144.887 39.7221 143.2 40.0218 141.3 40.0218L141.295 40Z" fill="#001C8E"/>
<path d="M155.555 39.684V10.6797H161.665V39.684H155.555Z" fill="#001C8E"/>
<path d="M177.372 40C175.128 40 173.141 39.5259 171.399 38.5942C169.658 37.6624 168.293 36.3765 167.283 34.7419C166.284 33.1127 165.776 31.26 165.776 29.1731C165.776 27.0862 166.278 25.1955 167.283 23.5663C168.293 21.9371 169.658 20.662 171.399 19.7357C173.135 18.8094 175.128 18.3463 177.372 18.3463C179.616 18.3463 181.581 18.8094 183.323 19.7357C185.076 20.662 186.446 21.9316 187.44 23.5445C188.433 25.1628 188.93 27.0426 188.93 29.1731C188.93 31.3036 188.433 33.1181 187.44 34.7419C186.451 36.3765 185.076 37.657 183.323 38.5942C181.576 39.5314 179.594 40 177.372 40ZM177.372 34.9925C178.393 34.9925 179.305 34.7582 180.118 34.2896C180.926 33.8156 181.565 33.1508 182.035 32.279C182.51 31.4072 182.739 30.3664 182.739 29.1677C182.739 27.9689 182.504 26.9064 182.035 26.0455C181.571 25.1846 180.926 24.5253 180.118 24.0512C179.305 23.5772 178.393 23.3483 177.372 23.3483C176.351 23.3483 175.445 23.5826 174.631 24.0512C173.823 24.5253 173.174 25.1846 172.693 26.0455C172.213 26.9064 171.967 27.9526 171.967 29.1677C171.967 30.3828 172.213 31.4072 172.693 32.279C173.179 33.1508 173.829 33.821 174.631 34.2896C175.445 34.7637 176.357 34.9925 177.372 34.9925Z" fill="#001C8E"/>
<path d="M193.003 39.684V18.6514H198.839V24.5907L198.02 22.8688C198.643 21.3867 199.653 20.2588 201.034 19.4905C202.421 18.7168 204.102 18.3354 206.084 18.3354V23.9695C205.828 23.9368 205.593 23.9204 205.38 23.9041C205.172 23.8932 204.954 23.8878 204.719 23.8878C203.043 23.8878 201.695 24.3673 200.663 25.3154C199.631 26.2634 199.118 27.751 199.118 29.7562V39.684H193.008H193.003Z" fill="#001C8E"/>
<path d="M214.863 40C213.22 40 211.806 39.7167 210.632 39.1554C209.458 38.5942 208.557 37.8368 207.93 36.8669C207.307 35.9025 206.99 34.8236 206.99 33.6248C206.99 32.4261 207.302 31.2818 207.908 30.3446C208.525 29.4074 209.496 28.6718 210.823 28.1379C212.161 27.6039 213.891 27.3314 216.032 27.3314H221.633V30.8895H216.698C215.262 30.8895 214.274 31.1238 213.744 31.5924C213.209 32.0665 212.936 32.6495 212.936 33.3524C212.936 34.1316 213.247 34.7528 213.853 35.205C214.47 35.6627 215.311 35.8916 216.381 35.8916C217.451 35.8916 218.314 35.6518 219.122 35.1669C219.935 34.6819 220.519 33.9736 220.885 33.0364L221.83 35.8534C221.382 37.2047 220.574 38.2346 219.4 38.9429C218.221 39.6458 216.709 40 214.858 40H214.863ZM221.278 39.684V35.5755L220.885 34.6765V27.326C220.885 26.0237 220.487 25.0048 219.695 24.2746C218.892 23.5445 217.675 23.1794 216.026 23.1794C214.907 23.1794 213.804 23.3538 212.718 23.7079C211.631 24.0621 210.714 24.5362 209.961 25.1355L207.76 20.8745C208.912 20.0681 210.294 19.4415 211.91 19.0001C213.531 18.5533 215.18 18.3354 216.851 18.3354C220.061 18.3354 222.556 19.0873 224.33 20.6075C226.105 22.1169 226.995 24.4762 226.995 27.6802V39.684H221.273H221.278Z" fill="#001C8E"/>
<path d="M0 16.3792L64.1833 0C64.1833 0 39.5604 37.7769 39.3202 37.7769C39.0799 37.7769 20.3316 24.3182 20.3316 24.3182L59.7774 2.81161L17.7601 22.4928L0 16.3792Z" fill="#FEBC12"/>
<path d="M19.1087 25.5497L20.7029 38.1419L27.9423 31.8485L19.1087 25.5497Z" fill="#FEBC12"/>
</g>
<defs>
<clipPath id="clip0_9_225">
<rect width="227" height="40" fill="white"/>
</clipPath>
</defs>
</svg>
