<svg width="227" height="40" viewBox="0 0 227 40" fill="none" xmlns="http://www.w3.org/2000/svg">
<g clip-path="url(#clip0_427_3259)">
<path d="M66.3726 10.4893V15.998H57.0093V39.6678H50.2394V23.3267C51.0693 22.0626 51.9155 20.7767 52.7563 19.4853C54.7927 16.374 56.8292 13.2627 58.6418 10.4893H66.3726Z" fill="white"/>
<path d="M40.4995 20.9563H46.8217C48.667 18.8422 50.7199 16.8969 52.9747 15.2241H40.4995V20.9563Z" fill="#FCB017"/>
<path d="M68.8731 39.684V18.6515H74.7094V24.5907L73.8905 22.8689C74.5129 21.3868 75.5229 20.2589 76.9042 19.4906C78.2909 18.7169 79.9725 18.3354 81.9543 18.3354V23.9696C81.6977 23.9369 81.463 23.9205 81.25 23.9042C81.0426 23.8933 80.8242 23.8878 80.5894 23.8878C78.9133 23.8878 77.5648 24.3673 76.5329 25.3154C75.501 26.2635 74.9879 27.7511 74.9879 29.7562V39.684H68.8785H68.8731Z" fill="white"/>
<path d="M90.7279 40.0001C89.0846 40.0001 87.6705 39.7167 86.4967 39.1555C85.3229 38.5943 84.4221 37.8369 83.7942 36.867C83.1718 35.9025 82.8552 34.8237 82.8552 33.6249C82.8552 32.4262 83.1664 31.2819 83.7724 30.3447C84.3893 29.4075 85.3611 28.6719 86.6878 28.1379C88.0254 27.6039 89.7561 27.3315 91.8963 27.3315H97.4979V30.8896H92.5624C91.1265 30.8896 90.1383 31.1239 89.6087 31.5925C89.0737 32.0665 88.8007 32.6496 88.8007 33.3525C88.8007 34.1317 89.1119 34.7528 89.7179 35.2051C90.3348 35.6628 91.1756 35.8916 92.2457 35.8916C93.3158 35.8916 94.1784 35.6519 94.9864 35.1669C95.7999 34.682 96.3841 33.9736 96.7499 33.0364L97.6944 35.8535C97.2467 37.2048 96.4387 38.2346 95.2649 38.943C94.0856 39.6459 92.5733 40.0001 90.7225 40.0001H90.7279ZM97.1484 39.684V35.5756L96.7554 34.6765V27.326C96.7554 26.0238 96.3568 25.0048 95.5652 24.2747C94.7626 23.5445 93.5451 23.1795 91.8963 23.1795C90.7771 23.1795 89.6742 23.3538 88.5878 23.708C87.5013 24.0622 86.5841 24.5362 85.8307 25.1356L83.6304 20.8746C84.7824 20.0682 86.1637 19.4416 87.7797 19.0002C89.4012 18.5534 91.0501 18.3354 92.7207 18.3354C95.931 18.3354 98.426 19.0874 100.2 20.6076C101.975 22.1169 102.865 24.4763 102.865 27.6802V39.684H97.143H97.1484Z" fill="white"/>
<path d="M113.713 39.6839L104.863 18.6514H111.169L118.534 36.7524H115.405L123.043 18.6514H128.923L120.03 39.6839H113.724H113.713Z" fill="white"/>
<path d="M141.295 39.9999C138.887 39.9999 136.785 39.5259 134.967 38.5941C133.149 37.6569 131.746 36.3764 130.752 34.7418C129.764 33.1126 129.267 31.26 129.267 29.1731C129.267 27.0861 129.759 25.1954 130.736 23.5662C131.719 21.937 133.056 20.662 134.749 19.7356C136.452 18.8093 138.363 18.3462 140.509 18.3462C142.654 18.3462 144.434 18.7875 146.088 19.6539C147.754 20.5257 149.064 21.779 150.025 23.4082C150.997 25.0374 151.472 26.9881 151.472 29.2548C151.472 29.4891 151.461 29.7561 151.433 30.0558C151.406 30.3555 151.384 30.6388 151.357 30.9003H134.241V27.3422H148.147L145.799 28.3993C145.799 27.3041 145.581 26.356 145.133 25.5441C144.691 24.7377 144.074 24.1056 143.293 23.6534C142.512 23.1957 141.59 22.9668 140.552 22.9668C139.515 22.9668 138.587 23.1957 137.784 23.6534C136.993 24.1056 136.365 24.7486 135.928 25.5659C135.48 26.3887 135.262 27.3586 135.262 28.4811V29.4183C135.262 30.5625 135.519 31.576 136.026 32.4478C136.534 33.3196 137.255 33.9844 138.183 34.4421C139.117 34.8943 140.203 35.1286 141.459 35.1286C142.578 35.1286 143.561 34.9597 144.412 34.6219C145.264 34.2841 146.039 33.7719 146.744 33.0962L149.992 36.6162C149.026 37.7114 147.814 38.5505 146.351 39.139C144.887 39.722 143.2 40.0217 141.3 40.0217L141.295 39.9999Z" fill="white"/>
<path d="M155.555 39.6839V10.6797H161.665V39.6839H155.555Z" fill="white"/>
<path d="M177.372 39.9999C175.128 39.9999 173.141 39.5259 171.399 38.5941C169.658 37.6624 168.293 36.3764 167.283 34.7418C166.284 33.1126 165.776 31.26 165.776 29.1731C165.776 27.0861 166.278 25.1954 167.283 23.5662C168.293 21.937 169.658 20.662 171.399 19.7356C173.135 18.8093 175.128 18.3462 177.372 18.3462C179.616 18.3462 181.581 18.8093 183.323 19.7356C185.076 20.662 186.446 21.9315 187.44 23.5444C188.433 25.1627 188.93 27.0426 188.93 29.1731C188.93 31.3036 188.433 33.118 187.44 34.7418C186.451 36.3764 185.076 37.6569 183.323 38.5941C181.576 39.5313 179.594 39.9999 177.372 39.9999ZM177.372 34.9924C178.393 34.9924 179.305 34.7581 180.118 34.2895C180.926 33.8155 181.565 33.1507 182.035 32.2789C182.51 31.4071 182.739 30.3664 182.739 29.1676C182.739 27.9689 182.504 26.9063 182.035 26.0454C181.571 25.1845 180.926 24.5252 180.118 24.0511C179.305 23.5771 178.393 23.3482 177.372 23.3482C176.351 23.3482 175.445 23.5825 174.631 24.0511C173.823 24.5252 173.174 25.1845 172.693 26.0454C172.213 26.9063 171.967 27.9525 171.967 29.1676C171.967 30.3827 172.213 31.4071 172.693 32.2789C173.179 33.1507 173.829 33.8209 174.631 34.2895C175.445 34.7636 176.357 34.9924 177.372 34.9924Z" fill="white"/>
<path d="M193.003 39.684V18.6515H198.839V24.5907L198.02 22.8689C198.643 21.3868 199.653 20.2589 201.034 19.4906C202.421 18.7169 204.102 18.3354 206.084 18.3354V23.9696C205.828 23.9369 205.593 23.9205 205.38 23.9042C205.172 23.8933 204.954 23.8878 204.719 23.8878C203.043 23.8878 201.695 24.3673 200.663 25.3154C199.631 26.2635 199.118 27.7511 199.118 29.7562V39.684H193.008H193.003Z" fill="white"/>
<path d="M214.863 40.0001C213.22 40.0001 211.806 39.7167 210.632 39.1555C209.458 38.5943 208.557 37.8369 207.93 36.867C207.307 35.9025 206.99 34.8237 206.99 33.6249C206.99 32.4262 207.302 31.2819 207.908 30.3447C208.525 29.4075 209.496 28.6719 210.823 28.1379C212.161 27.6039 213.891 27.3315 216.032 27.3315H221.633V30.8896H216.698C215.262 30.8896 214.274 31.1239 213.744 31.5925C213.209 32.0665 212.936 32.6496 212.936 33.3525C212.936 34.1317 213.247 34.7528 213.853 35.2051C214.47 35.6628 215.311 35.8916 216.381 35.8916C217.451 35.8916 218.314 35.6519 219.122 35.1669C219.935 34.682 220.519 33.9736 220.885 33.0364L221.83 35.8535C221.382 37.2048 220.574 38.2346 219.4 38.943C218.221 39.6459 216.709 40.0001 214.858 40.0001H214.863ZM221.278 39.684V35.5756L220.885 34.6765V27.326C220.885 26.0238 220.487 25.0048 219.695 24.2747C218.892 23.5445 217.675 23.1795 216.026 23.1795C214.907 23.1795 213.804 23.3538 212.718 23.708C211.631 24.0622 210.714 24.5362 209.961 25.1356L207.76 20.8746C208.912 20.0682 210.294 19.4416 211.91 19.0002C213.531 18.5534 215.18 18.3354 216.851 18.3354C220.061 18.3354 222.556 19.0874 224.33 20.6076C226.105 22.1169 226.995 24.4763 226.995 27.6802V39.684H221.273H221.278Z" fill="white"/>
<path d="M0 16.3792L64.1833 0C64.1833 0 39.5604 37.7769 39.3202 37.7769C39.0799 37.7769 20.3316 24.3182 20.3316 24.3182L59.7774 2.81161L17.7601 22.4928L0 16.3792Z" fill="#FEBC12"/>
<path d="M19.1087 25.5498L20.7029 38.1421L27.9423 31.8487L19.1087 25.5498Z" fill="#FEBC12"/>
</g>
<defs>
<clipPath id="clip0_427_3259">
<rect width="227" height="40" fill="white"/>
</clipPath>
</defs>
</svg>
